<svg xmlns="http://www.w3.org/2000/svg" viewBox="0 0 57.98 57.98"><path d="M39.295 15.98c-10.833-1.667-15 4-15 4-7.75-.75-11-3-11-3-1.676 1.948-3.594 2.956-5 3.474V49.98c0 2.2 1.8 4 4 4h34c2.2 0 4-1.8 4-4v-32c-8.083 4.75-11-2-11-2z" fill="#FFDB2B"/><path d="M17.115 48.263c-1.366 0-2.642-.498-3.526-1.383-.392-.39-.392-1.023 0-1.414s1.022-.39 1.413 0c1.134 1.134 3.363 1.05 4.586-.173 1.938-1.94 5.474-1.94 7.413 0 1.18 1.178 3.406 1.178 4.586 0 1.938-1.94 5.474-1.94 7.413 0 1.18 1.178 3.406 1.178 4.586 0 .39-.39 1.022-.39 1.413 0s.39 1.023 0 1.414c-.932.932-2.282 1.466-3.707 1.466s-2.775-.534-3.707-1.466c-1.18-1.178-3.407-1.178-4.587 0-.932.932-2.282 1.466-3.707 1.466s-2.775-.534-3.707-1.466c-1.18-1.178-3.407-1.178-4.587 0-.932.932-2.27 1.497-3.668 1.55-.074.004-.148.006-.22.006z" fill="#E57E25"/><circle cx="38.295" cy="32" r="6" fill="#FFF"/><circle cx="38.295" cy="32" r="2" fill="#556080"/><circle cx="20.295" cy="32" r="6" fill="#FFF"/><circle cx="20.295" cy="32" r="2" fill="#556080"/><path d="M40.99 57.98H17.6c-.72 0-1.304-.584-1.304-1.305V53.98h26v2.695c0 .72-.585 1.305-1.306 1.305z" fill="#FEC722"/><path d="M54.295 17.98c-.62-4.487-2.586-7.48-4.47-9.034-.917-.755-1.44-1.852-1.736-3-.8-3.103-3.74-4.758-6.795-4.966-1.947-.133-3.646.484-5.59 1.26-.61.245-1.35-.01-1.583-.625-1.194-3.17-8.034-1.545-13.25 3.75-.25.254-.683.125-.733-.228-.174-1.23-.264-3.448 1.154-4.157 0 0-4.407-2.48-8.186.826-1.152 1.008-1.905 2.394-2.29 3.875-.09.356-.185.735-.268 1.108-.232 1.033-1.557 1.385-2.238.573l-.04-.05c-.637-.777-1.86-.656-2.258.268-2.12 4.922-5.41 15.96 2.28 25.402V20.454c1.407-.518 3.325-1.526 5-3.474 0 0 3.25 2.25 11 3 0 0 4.168-5.667 15-4 0 0 2.918 6.75 11 2v15s5.354-5.215 4-15z" fill="#7F6E5D"/></svg>