<svg xmlns="http://www.w3.org/2000/svg" viewBox="0 0 57.98 57.98"><path d="M54.295 17.98c-.62-4.487-2.586-7.48-4.47-9.034-.917-.755-1.44-1.852-1.736-3-.8-3.103-3.74-4.758-6.795-4.966-1.947-.133-3.646.484-5.59 1.26-.61.245-1.35-.01-1.583-.625-1.194-3.17-8.034-1.545-13.25 3.75-.25.254-.683.125-.733-.228-.174-1.23-.264-3.448 1.154-4.157 0 0-4.407-2.48-8.186.826-1.152 1.008-1.905 2.394-2.29 3.875-.09.356-.185.735-.268 1.108-.232 1.033-1.557 1.385-2.238.573l-.04-.05c-.637-.777-1.86-.656-2.258.268-2.12 4.922-5.41 15.96 2.28 25.402V20.454c1.407-.518 3.325-1.526 5-3.474 0 0 3.25 2.25 11 3 0 0 4.168-5.667 15-4 0 0 2.918 6.75 11 2v15s5.354-5.215 4-15z" fill="#7F6E5D"/><path d="M39.295 15.98c-10.833-1.667-15 4-15 4-7.75-.75-11-3-11-3-1.676 1.948-3.594 2.956-5 3.474V49.98c0 2.2 1.8 4 4 4h34c2.2 0 4-1.8 4-4v-32c-8.083 4.75-11-2-11-2z" fill="#FFDB2B"/><path d="M28.368 49c-2.507 0-4.982-.952-7.378-2.844-.433-.343-.507-.972-.165-1.405.343-.432.972-.506 1.405-.164 2.42 1.91 4.896 2.688 7.337 2.324 4.582-.69 7.686-5.127 7.717-5.172.313-.453.934-.567 1.39-.256.456.313.57.936.257 1.39-.145.213-3.634 5.197-9.063 6.016-.502.075-1 .113-1.5.113z" fill="#E57E25"/><path d="M39.464 44.1c-.21 0-.42-.065-.6-.2l-2.8-2.1c-.44-.33-.53-.958-.2-1.4.332-.44.96-.53 1.4-.2l2.8 2.1c.442.332.532.96.2 1.4-.195.262-.495.4-.8.4zM19.867 46.9c-.304 0-.604-.138-.8-.4-.332-.44-.243-1.068.198-1.4l2.8-2.1c.443-.33 1.07-.242 1.4.2.33.44.242 1.068-.2 1.4l-2.8 2.1c-.18.135-.39.2-.598.2z" fill="#E57E25"/><path d="M23.933 34c-.282 0-.558-.12-.75-.34-1.82-2.068-4.987-2.27-7.057-.448-.415.363-1.046.325-1.412-.09-.364-.415-.324-1.047.09-1.412 2.19-1.926 5.25-2.236 7.72-1.024-.238-.555-.573-1.086-.994-1.564-.978-1.11-2.292-1.795-3.606-1.878-.55-.035-.97-.51-.935-1.062.033-.55.507-.954 1.06-.935 1.84.117 3.656 1.047 4.98 2.553 1.326 1.505 2.02 3.424 1.9 5.264-.024.403-.29.752-.674.883-.106.035-.214.053-.323.053z" fill="#F0C419"/><circle cx="38.295" cy="29.98" r="6" fill="#FFF"/><circle cx="38.295" cy="29.98" r="2" fill="#556080"/><path d="M40.99 57.98H17.6c-.72 0-1.304-.584-1.304-1.305V53.98h26v2.695c0 .72-.585 1.305-1.306 1.305z" fill="#FEC722"/></svg>